<?xml version="1.0" encoding="UTF-8"?>
<svg id="_图层_2" data-name="图层_2" xmlns="http://www.w3.org/2000/svg" viewBox="0 0 797.1 191.87">
  <defs>
    <style>
      .cls-1 {
        fill: #80807d;
      }

      .cls-2 {
        fill: #961e32;
      }
    </style>
  </defs>
  <g id="_图层_1-2" data-name="图层_1">
    <g>
      <path class="cls-2" d="M335.91,58.86c.31.52.43,1.23,1.75,1.38,0-1.41,0-2.77,0-4.13,0-17.24.02-34.48.03-51.73,0-.78.04-1.56.01-2.33-.05-1.25.45-1.93,1.93-1.93,6.06.01,12.11,0,18.17-.05,1.44-.01,2.05.57,2,1.86-.03.65.01,1.3.01,1.94.02,31.89.04,63.78.06,95.67,0,3.42-.01,3.43-3.61,3.44-5.07,0-10.15-.13-15.21.05-2.63.09-3.98-.81-5.2-2.92-8.68-15.11-31.75-54.51-34.8-59.11l-.17,58.38c0,3.68.22,3.57-3.94,3.56-4.79,0-9.58.04-14.37.03-4.14,0-4.16-.02-4.16-3.74-.02-15.04-.02-78.82,0-95.68,0-3.42.02-3.43,3.6-3.45,5.35-.02,10.72.18,16.05-.11,3.06-.16,4.52,1.01,5.81,3.3"/>
      <path class="cls-2" d="M444.81.1c7.07.23,11.61,4.19,11.81,10.76.2,6.6-.02,13.22.04,19.82.02,1.74-.81,2.21-2.54,2.19-5.91-.06-11.83-.07-17.74-.01-1.81.02-2.51-.55-2.44-2.25.11-2.72-.05-5.44.07-8.16.08-1.91-.44-2.79-2.79-2.77-9.43.11-18.87.08-28.3.03-1.94-.01-2.73.54-2.72,2.45.08,19.7.1,39.39.08,59.09,0,1.79.6,2.54,2.65,2.54,9.43-.02,18.87.03,28.3.12,1.9.02,2.83-.44,2.79-2.38-.1-4.79-.09-9.59,0-14.38.03-1.66-.85-1.93-2.32-1.91-4.36.04-8.73-.06-13.09.08-2.11.07-2.66-.68-2.63-2.48.07-4.66.06-9.33-.07-13.99-.06-1.91.73-2.46,2.7-2.44,11.83.08,23.65.14,35.48.07,2.54-.01,2.59,1.21,2.58,2.92-.02,13.99.06,27.99-.02,41.98-.04,7.42-4.45,11.53-12.54,11.57-16.75.1-53.65.05-55.33-.05-5.57-.32-10.06-4.04-10.94-9.12-.24-1.4-.28-2.84-.28-4.26l.13-79.68c.99-5.84,5.36-9.42,11.79-9.75h55.33Z"/>
      <path class="cls-2" d="M260.76,91.28c0,3.84-1.21,7.13-4.62,9.54-2.09,1.48-4.44,2.17-7.06,2.16-18.44-.03-36.88.01-55.32-.12-5.89-.04-9.68-3.16-11.11-8.39l-.54-83.51c.77-6.98,5.14-10.84,12.76-10.88,17.88-.09,35.75-.09,53.63-.01,7.71.03,12.22,4.35,12.25,11.53l.02,79.67ZM204.8,80.45c0,3.19.04,3.24,3.43,3.25,8.87.04,17.74.03,26.61.03,3.15,0,3.2,0,3.21-3.05.02-19.31.03-38.61.02-57.92,0-2.99-.06-3.02-3.25-3.03-8.87-.03-17.74-.04-26.61-.04-3.45,0-3.47.02-3.47,3.22"/>
      <path class="cls-2" d="M698.79,98.78c.4,1.21.75,2.44,1.3,4.21-7.93,0-15.24,0-22.55,0-1.14,0-1.79-.41-2.09-1.48l-24.82-80.6-28.41,82.12c-6.87-.15-13.74-.05-21.08-.05.85-2.76,1.55-5.21,2.34-7.64l29.99-92.66c.52-1.89,1.46-2.72,3.75-2.69,8.73.13,17.46.14,26.19,0,2.44-.04,3.42.75,4.09,2.84l31.29,95.93Z"/>
      <path class="cls-2" d="M65.06,103.03c2.12.02,3-.48,2.91-2.61-.18-4.4-.05-8.81-.08-13.22-.02-3.35-.03-3.4-3.68-3.42-10.56-.06-21.12-.06-31.68-.14-1.59-.01-3.26.25-5-.49L60.15,28.89c2.32-3.85,5.53-7.47,6.71-11.59,1.18-4.13.33-8.74.38-13.14,0-.13,0-.26,0-.39.04-4,.04-3.64-3.84-3.64-15.77,0-31.54-.02-47.32-.02-3.8,0-7.61.12-11.4-.03C2.37-.02,1.8.84,1.85,2.8c.12,4.27,0,8.55.04,12.83.04,4.39-.69,4.12,4.57,4.13,11.26.01,22.51,0,34.06,0L6.7,75.27C1.54,83.1-.75,90.94.22,99.86c.33,3.03.11,3.1,3.59,3.11l61.26.06Z"/>
      <path class="cls-1" d="M785.83,50.37c8.66,2.7,10.96,8.17,10.91,14.94-.06,9.06.81,18.11.04,27.17-.55,6.47-4.58,10.28-11.66,10.39-12.1.18-24.21.1-36.31.08-2.93,0-2.97-.1-3-2.9-.04-4.4-.05-8.81-.02-13.21.02-2.91.06-2.95,3.36-2.95,7.18-.01,14.36.05,21.54.03,3.7-.01,3.72-.06,3.74-3.48.04-5.7-.02-11.4.11-17.1.05-2.04-.73-2.7-2.91-2.67-7.46.09-14.92.07-22.38.05-3.41-.01-3.43-.06-3.46-3.25-.03-3.89-.02-7.77.01-11.66.03-3.64.05-3.66,3.86-3.68,6.47-.04,12.95-.05,19.42-.08,4.28-.02,4.35-.02,4.39-3.75.06-5.3-.05-10.61.04-15.92.04-2.07-.9-2.7-3.03-2.67-7.04.08-14.08.07-21.11.05-3.52-.01-3.54-.05-3.55-3.18-.02-4.53.09-9.07,0-13.6-.04-1.88.37-2.83,2.74-2.81,11.68.08,23.37-.1,35.05.06,7.66.1,12.2,4.51,12.27,11.66.08,8.16-.22,16.33,0,24.48.18,6.5-1.96,11.46-10.06,14.03Z"/>
      <path class="cls-2" d="M141.97,99.81c0,3.12.05,3.14,3.47,3.16,5.07.03,10.13.03,15.2.01,3.67-.02,3.71-.04,3.72-3.35l.02-96.35c0-3.13-.06-3.16-3.51-3.18-5.07-.03-10.13-.04-15.2-.03-3.71.01-3.73.03-3.73,3.35l.02,96.39Z"/>
      <path class="cls-2" d="M542.57,100.01c0,3,0,3.03-3.18,3.03-5.49,0-10.98-.02-16.47-.07-3.12-.03-3.18-.06-3.19-3.02l-.09-96.4c0-3.41.03-3.43,3.66-3.43,5.21,0,10.42,0,15.63.02,3.53.01,3.56.03,3.58,3.48l.07,96.4Z"/>
      <path class="cls-2" d="M105.32,101.1c.1,1.26-.38,1.93-1.88,1.92-6.19-.04-12.38-.04-18.57-.02-1.48,0-1.98-.6-1.92-1.89l.02-99.03c-.1-1.53.73-2,2.29-1.99,5.91.04,11.82.03,17.72-.02,1.58-.01,2.34.49,2.28,2.01l.05,99.03Z"/>
      <path class="cls-1" d="M734.8,100.96c0,.65-.34,2.01-1.76,2-6.05-.02-12.1-.02-18.15-.01-1.33,0-2.16-.4-2.12-1.76.02-.65.01-64.88.05-96.34,0-5.09-.54-4.63,4.92-4.67,4.36-.03,8.72-.02,13.09,0,4.15.02,4.18.03,4.18,3.8l-.21,96.99Z"/>
      <path class="cls-1" d="M293.7,164.24c.56-10.09.88-20.05.36-30.01-.3-5.75-.27-5.76,5.94-5.75,1.97,0,3.94.04,5.92.04,1.42,0,2.05.65,2.02,1.92-.01.52,0,1.04,0,1.56,0,18.41.02,36.82,0,55.22,0,4.62.2,3.87-4.5,4.4-6.05.69-9.33-1.3-11.9-6.43-4.42-8.81-9.73-17.23-14.7-25.8-.64-1.11-1.01-2.39-2.41-3.48-.58,1.04-.39,2.04-.39,2.97,0,9.72.05,19.44.05,29.17,0,3.43-.05,3.44-3.7,3.47-2.54.02-5.07-.04-7.61.01-1.58.03-2.33-.54-2.28-2.04.07-1.81.07-3.63.06-5.44-.03-17.11-.07-34.22-.1-51.33,0-.78,0-1.56,0-2.33-.02-1.28.67-1.89,2.06-1.87,2.82.04,5.63.09,8.45.07,2.14-.01,2.79,1.5,3.58,2.86,4.12,7.08,8.2,14.18,12.33,21.26,2.25,3.86,4.55,7.7,6.83,11.55Z"/>
      <path class="cls-1" d="M652.92,155.65c0,10.11,0,20.21,0,30.32,0,1.17-.05,2.33,0,3.5.07,1.51-.73,2.06-2.3,2.03-2.82-.05-5.64-.13-8.45,0-2.3.11-2.82-.83-2.81-2.76.06-7-.07-44.84-.03-56.76.01-3.34.08-3.44,3.76-3.43,10.59.05,7.78-1.64,12.77,6.78,5.32,8.98,10.47,18.05,15.71,27.08.31.53.43,1.24,1.77,1.42,0-1.27,0-2.49,0-3.7-.06-9.46-.15-18.92-.18-28.38,0-3.14.06-3.16,3.53-3.22,2.53-.04,5.07.03,7.6-.06,1.84-.06,2.53.67,2.46,2.31-.08,1.68-.11,56.77-.12,57.15q-.07,3.48-4.05,3.53c-1.27.01-2.57-.15-3.8.04-3.32.54-5.07-.81-6.53-3.49-3.9-7.18-8.09-14.23-12.18-21.32-2.15-3.74-4.33-7.47-6.49-11.2-.22.05-.44.11-.66.16Z"/>
      <path class="cls-1" d="M48.7,131.78c0-3.22,0-3.28,3.44-3.28,8.45,0,16.91,0,25.36.09,3.26.03,6.42.67,9.38,2.01,5.41,2.46,8.58,6.5,8.7,11.96.25,11.53.32,23.08,0,34.61-.22,8.03-6.65,13.82-15.53,14.13-9.57.34-19.16.09-28.74.23-2.55.04-2.62-1.29-2.62-2.97.02-9.59-.02-47.45,0-56.79ZM63.04,159.92s-.02,0-.04,0c0,6.47.06,12.94-.04,19.41-.03,1.94.51,2.88,2.81,2.74,2.8-.16,5.64.06,8.43-.19,4.54-.42,7.01-2.63,7.09-6.82.18-10.22.15-20.45.02-30.67-.05-3.65-2.46-5.72-6.36-5.89-2.95-.13-5.91-.13-8.86-.09-2.97.04-3.03.09-3.04,2.87-.04,6.21-.01,12.42-.01,18.64Z"/>
      <path class="cls-1" d="M103.2,140.04c0-1.3-.04-2.6.08-3.89.45-4.65,3.33-7.59,8.37-7.7,10.27-.21,20.56-.2,30.84-.02,4.83.08,7.76,3.06,7.92,7.51.12,3.36-.05,6.74-.05,10.11,0,1.28-.57,1.91-1.99,1.91-3.38,0-6.76,0-10.14.05-1.72.03-2.13-.85-2.1-2.21.05-1.81-.03-3.63.02-5.44.05-1.57-.55-2.45-2.4-2.44-4.65.03-9.29.02-13.94,0-1.57,0-2.33.65-2.28,2.12.03.91,0,1.81,0,2.72-.01,12.05-.03,24.11-.03,36.16,0,3.15.03,3.19,3.52,3.2,4.22.01,8.45-.1,12.67-.04,1.82.02,2.51-.6,2.47-2.27-.08-3.5-.07-7,.02-10.5.04-1.69-.74-2.32-2.5-2.26-1.97.07-3.94.02-5.91.06-1.55.03-2.22-.6-2.42-2.04-.92-6.68-.45-7.19,6.88-7.16,5.07.02,10.14-.05,15.21-.02,2.94.02,3.02.07,3.03,2.87.03,7.52.06,15.03-.05,22.55-.08,5.24-2.78,7.8-8.39,8.43-3.25.36-6.47-.12-9.7-.12-6.48,0-12.96.07-19.43-.03-6.83-.11-9.67-2.81-9.71-9.16-.05-7.39,0-35.64,0-42.38Z"/>
      <path class="cls-1" d="M533.2,138.68c0-1.42.08-2.86.4-4.24.87-3.76,3.47-5.95,7.67-6,10.27-.13,20.55-.19,30.82-.03,5.24.08,7.89,2.77,8.1,7.65.14,3.23-.02,6.48.02,9.71.01,1.35-.33,2.24-2.07,2.23-3.38-.02-6.76.02-10.13.07-1.69.03-2.16-.81-2.1-2.2.07-1.81,0-3.63.07-5.44.08-1.73-.49-2.63-2.62-2.58-4.36.11-8.73.1-13.09,0-2.24-.05-2.92.83-2.9,2.77.07,6.09.01,12.18,0,18.26,0,6.87.06,13.73-.06,20.6-.03,1.99.6,2.79,2.84,2.73,4.5-.12,9.01-.09,13.51-.06,1.56,0,2.31-.49,2.29-2.02-.04-3.63-.05-7.25.04-10.88.04-1.74-.88-2.28-2.58-2.17-.56.04-1.13.06-1.69,0-1.91-.21-4.67.94-5.58-.59-1.31-2.21-.53-5.05-.4-7.62.05-1.02,1.07-1.05,1.91-1.05,6.76,0,13.51.05,20.27.03,1.56,0,2.3.49,2.29,2.02-.06,8.29.08,16.58-.13,24.87-.11,4.41-3.04,6.8-7.91,6.83-9.99.06-19.98.06-29.96-.04-5.68-.05-8.2-2.29-8.76-7.45-.41-3.75-.24-7.49-.09-11.25.18-4.4-.21-27.18-.17-34.17Z"/>
      <path class="cls-1" d="M697.6,137.5c.06-6.45,2.77-9.04,9.67-9.11,9.43-.09,18.86-.09,28.29,0,5.42.05,8.55,3.02,8.68,8.06.09,3.5-.07,7,.01,10.49.04,1.76-.45,2.64-2.58,2.55-3.09-.13-6.19-.09-9.29-.02-1.79.04-2.55-.59-2.49-2.27.09-2.33-.05-4.67.06-6.99.1-1.99-1.04-2.37-2.87-2.34-4.08.07-8.16,0-12.24.05-2.81.04-2.87.1-2.89,3.04-.03,5.04-.06,36.7-.11,38.47-.06,2.01.68,2.75,2.9,2.68,4.08-.13,8.16,0,12.24-.05,2.89-.04,2.93-.09,2.97-2.94.03-2.59.01-5.18-.07-7.77-.05-1.62.63-2.39,2.45-2.35,3.24.07,6.47.1,9.71.07,1.66-.01,2.2.72,2.19,2.15-.04,4.4.16,8.81-.05,13.21-.2,4.21-3.17,6.84-7.75,7.28-3.65.35-23.35-.05-29.54-.15-6.43-.1-9.25-2.69-9.32-8.6-.08-7.64-.04-37.95.03-45.46Z"/>
      <path class="cls-1" d="M368.18,159.59c0-9.2-.02-18.4,0-27.6,0-3.4.05-3.44,3.74-3.45,10.56-.03,21.12-.03,31.68-.02,3.62,0,3.62.05,3.69,3.52q.12,6.38-6.91,6.39c-5.07,0-10.14.07-15.2-.03-2.15-.04-3.03.59-2.94,2.65.15,3.36.12,6.74.02,10.1-.05,1.83.69,2.55,2.7,2.52,5.21-.07,10.42-.05,15.63-.02,3.82.02,3.82.05,3.85,3.7,0,1.04,0,2.07,0,3.11-.04,3.28-.05,3.32-3.8,3.35-5.21.04-10.42.06-15.63,0-1.93-.02-2.81.55-2.77,2.46.11,4.27.13,8.55.03,12.83-.04,1.87.71,2.51,2.7,2.48,6.33-.08,12.67-.07,19.01-.06,4.19,0,4.19.03,4.19,3.86q0,6.08-6.77,6.09c-9.57,0-19.15,0-28.72,0-4.79,0-4.48.32-4.47-4.29,0-9.2,0-18.4,0-27.6h-.02Z"/>
      <path class="cls-1" d="M162.81,132.1c0-3.48.03-3.51,3.63-3.52,10.56-.03,21.11-.04,31.67-.03,3.42,0,3.52.06,3.48,3.24-.1,7.78,1.25,6.57-6.97,6.66-4.93.05-9.85.06-14.78-.04-2.06-.04-3.12.41-3.01,2.56.17,3.36.21,6.74.06,10.1-.09,2.17.99,2.63,3.03,2.6,5.07-.06,10.13-.03,15.2.01,3.77.03,3.87.07,3.77,3.33-.07,2.14,1.05,4.81-.66,6.3-1.53,1.33-4.32.43-6.55.49-4.08.11-8.16.09-12.24.05-1.74-.02-2.57.55-2.54,2.24.07,4.4.08,8.81.02,13.21-.02,1.71.82,2.25,2.55,2.22,3.52-.05,7.04,0,10.56,0,3.38.01,6.76.06,10.13.03,1.7-.01,2.49.52,2.65,2.22.71,7.63.76,7.65-7.55,7.66-9.71.02-19.42.02-29.14,0-3.23,0-3.3-.05-3.31-3.01-.04-9.46-.01-47.02,0-56.35Z"/>
      <path class="cls-1" d="M.33,131.67c0-3.04.06-3.11,3.21-3.12,10.7-.03,21.39-.03,32.09.02,3.61.01,3.61.09,3.66,3.5q.09,6.31-6.89,6.34c-5.07.02-10.13.07-15.2,0-2.02-.03-2.73.68-2.66,2.5.11,3.36.16,6.74.02,10.1-.08,2.07.84,2.71,2.96,2.67,5.21-.09,10.42-.08,15.62-.06,3.45.02,3.47.06,3.51,3.24.02,1.42-.14,2.86,0,4.27.21,2.11-.89,2.73-2.96,2.71-5.07-.05-10.13-.04-15.2-.01-3.93.02-3.95.05-3.97,3.66-.02,3.76-.03,7.51.03,11.27.05,2.71.1,2.77,3.14,2.79,6.33.04,12.67-.02,19,0,3.42.01,3.42.05,3.48,3.26q.13,6.64-6.96,6.63c-9.85,0-19.7.03-29.56,0-3.19,0-3.25-.08-3.26-3.05-.03-9.46-.01-18.91-.01-28.37-.02,0-.08-18.91-.05-28.37Z"/>
      <path class="cls-1" d="M754.23,132.02c0-3.43.04-3.48,3.66-3.48,10.84-.02,21.67-.02,32.51.01,3.32.01,3.43.07,3.39,2.95-.02,1.94.01,3.36,0,4.38-.05,3.55-.78,2.48-7.46,2.61-4.92.1-9.85-.04-14.78-.02-3.18.02-3.22.07-3.24,3.09-.02,3.11.14,6.22.05,9.32-.05,1.99.78,2.77,2.95,2.75,5.21-.06,10.41-.02,15.62.04,3.53.03,3.53.07,3.58,3.21.02,1.42-.12,2.86.04,4.27.24,2.11-.83,2.75-2.92,2.7-4.64-.12-9.28-.21-13.92-.23-5.92-.03-5.35-.24-5.38,4.73-.03,3.5.05,7-.04,10.49-.05,1.99.78,2.72,2.96,2.7,6.33-.07,12.67-.02,19,.03,3.82.03,3.82.06,3.99,3.62q.31,6.32-6.76,6.29c-9.85-.02-19.7-.02-29.55-.05-3.59-.01-3.64-.05-3.65-3.46-.03-9.33-.07-46.63-.05-55.95Z"/>
      <path class="cls-1" d="M591.01,131.81c.01-3.2.07-3.24,3.51-3.25,10.56-.03,21.13-.03,31.69,0,3.55,0,3.55.07,3.62,3.19q.16,6.68-6.97,6.67c-5.07,0-10.14.09-15.21,0-2.22-.04-2.95.74-2.87,2.73.13,2.98-.03,5.96,0,8.94.03,3.45.05,3.47,3.68,3.5,5.07.04,10.14,0,15.21.07,3.26.04,3.26.09,3.2,2.99-.01.65-.02,1.3-.04,1.94-.15,5.72,1.21,5.21-5.96,5.29-4.37.05-8.73.1-13.1,0-2.12-.04-3.09.53-3.03,2.64.12,4.14.12,8.3-.03,12.44-.07,2.11.88,2.67,2.99,2.64,6.34-.09,12.67-.09,19.01-.07,3.77,0,3.86.05,3.78,3.43-.18,7.86.83,6.44-6.81,6.51-9.58.09-19.15.03-28.73,0-3.82,0-3.85-.05-3.85-3.67-.02-9.33-.12-46.65-.09-55.99Z"/>
      <path class="cls-1" d="M345.15,165.06c0,7.64.02,15.28,0,22.92-.01,3.46-.05,3.47-3.62,3.5-2.67.02-5.35-.07-8.02.03-1.94.07-2.84-.47-2.73-2.41.14-2.58.03-5.18.03-7.77,0-13.08,0-26.15-.03-39.23,0-3.64-.04-3.66-3.89-3.69-2.95-.03-5.91-.08-8.86.03-2.06.08-3.01-.38-3.1-2.53-.28-7.32-.37-7.31,7.56-7.33,11.4-.02,22.79-.07,34.19-.08,4.19,0,4.23.02,4.2,3.85-.06,7.11.65,5.97-6.44,6.06-1.55.02-3.1,0-4.64,0-4.9.02-4.65-.35-4.64,4.12.01,7.51,0,15.02,0,22.53Z"/>
      <path class="cls-1" d="M416.57,130.99c-.1-1.79.68-2.59,2.72-2.52,2.95.11,5.92.11,8.87,0,2.08-.08,2.65.77,2.65,2.54,0,5.83.53,36.4-.03,45.85-.03.52-.03,1.04,0,1.55.18,2.87.35,3.06,3.47,3.08,5.49.04,10.98-.02,16.47,0,4.01.02,4.08.04,4.02,3.63-.12,7.6.66,6.24-6.62,6.3-9.43.08-18.87-.04-28.3.02-2.08.01-2.97-.47-3.03-2.57-.31-9.59-.18-56.99-.23-57.9Z"/>
      <path class="cls-1" d="M462.56,131.97c.01-3.37.06-3.4,3.75-3.45,2.81-.04,5.63.01,8.44,0,1.4,0,2.06.61,2.04,1.89-.01.78,0,1.55,0,2.33,0,14.5,0,44.55.01,45.06.05,3.68.05,3.69,3.89,3.7,5.49.02,10.98-.02,16.46.03,3.2.03,3.21.09,3.25,3.08.02,1.17.01,2.33,0,3.5-.05,3.25-.06,3.3-3.4,3.31-10.27.03-20.54.04-30.81.02-3.51,0-3.55-.05-3.56-3.53-.02-9.32-.11-46.62-.08-55.94Z"/>
      <path class="cls-1" d="M234.79,159.93c0-9.33,0-18.67,0-28,0-3.35.02-3.35,3.75-3.38,2.82-.02,5.64.05,8.45-.04,1.85-.06,2.57.69,2.45,2.32-.05.65-.01,1.3-.01,1.94-.02,18.02-.04,36.04-.06,54.06,0,.91-.04,1.82,0,2.72.04,1.28-.55,1.91-1.99,1.9-3.52-.03-7.04-.05-10.56-.02-1.49.01-1.95-.72-1.95-1.94,0-2.2-.08-4.41-.08-6.61-.01-7.65,0-15.3,0-22.95h.02Z"/>
      <path class="cls-1" d="M522.53,187.91c0,3.58-.04,3.59-3.98,3.61-2.54.01-5.08-.09-7.61.01-2.01.08-2.71-.63-2.67-2.49.1-4.54-.03-42.39-.04-56.78,0-.78-.01-1.56.04-2.33.06-.92.64-1.4,1.64-1.4,3.66,0,7.32-.03,10.99,0,1.25,0,1.67.78,1.67,1.82,0,1.81,0,48.23-.03,57.56Z"/>
      <path class="cls-2" d="M585.86,103.05c2.15.03,2.96-.52,2.89-2.63-.15-4.79-.07-9.58.02-14.37.03-1.62-.47-2.34-2.36-2.33-9.85.06-19.69.04-29.54.04-1.32,0-2.08.36-2.07,1.76.05,5.68.02,11.37.02,17.45l31.03.08Z"/>
      <rect class="cls-1" x="113.59" y="37.24" width="21.68" height="28.11" rx="1.81" ry="1.81"/>
      <path class="cls-1" d="M652.34,64.54h-4.72c-1.47,0-2.78.94-3.24,2.34l-3.95,11.88c-.74,2.21.91,4.5,3.24,4.5h13.15c2.39,0,4.04-2.39,3.2-4.63l-4.48-11.88c-.5-1.33-1.78-2.21-3.2-2.21Z"/>
    </g>
  </g>
</svg>